<mxfile host="app.diagrams.net" agent="Mozilla/5.0 (Windows NT 10.0; Win64; x64) AppleWebKit/537.36 (KHTML, like Gecko) Chrome/131.0.0.0 Safari/537.36" version="26.0.5">
  <diagram name="Page-1" id="ETEwV0-8o03pE1zWXZqT">
    <mxGraphModel dx="794" dy="446" grid="0" gridSize="10" guides="1" tooltips="1" connect="1" arrows="1" fold="1" page="1" pageScale="1" pageWidth="850" pageHeight="1100" math="0" shadow="0">
      <root>
        <mxCell id="0" />
        <mxCell id="1" parent="0" />
        <mxCell id="hGzP_NzbHsl1hQDnJrEE-3" value="" style="group" vertex="1" connectable="0" parent="1">
          <mxGeometry x="233" y="28" width="681.46" height="777" as="geometry" />
        </mxCell>
        <mxCell id="hGzP_NzbHsl1hQDnJrEE-17" value="" style="rounded=0;whiteSpace=wrap;html=1;rotation=90;" vertex="1" parent="hGzP_NzbHsl1hQDnJrEE-3">
          <mxGeometry x="-312.76" y="315.64" width="994.22" height="368.18" as="geometry" />
        </mxCell>
        <mxCell id="hGzP_NzbHsl1hQDnJrEE-16" value="" style="group" vertex="1" connectable="0" parent="hGzP_NzbHsl1hQDnJrEE-3">
          <mxGeometry x="15" y="40" width="107" height="178" as="geometry" />
        </mxCell>
        <mxCell id="hGzP_NzbHsl1hQDnJrEE-8" value="" style="ellipse;whiteSpace=wrap;html=1;" vertex="1" parent="hGzP_NzbHsl1hQDnJrEE-16">
          <mxGeometry x="6" width="98" height="57" as="geometry" />
        </mxCell>
        <mxCell id="hGzP_NzbHsl1hQDnJrEE-9" value="Afficher les cours" style="text;html=1;align=center;verticalAlign=middle;whiteSpace=wrap;rounded=0;" vertex="1" parent="hGzP_NzbHsl1hQDnJrEE-16">
          <mxGeometry x="25" y="13.5" width="60" height="30" as="geometry" />
        </mxCell>
        <mxCell id="hGzP_NzbHsl1hQDnJrEE-2" value="Youdemy" style="text;html=1;align=center;verticalAlign=middle;whiteSpace=wrap;rounded=0;fontSize=19;" vertex="1" parent="hGzP_NzbHsl1hQDnJrEE-3">
          <mxGeometry x="152" y="9" width="59" height="31" as="geometry" />
        </mxCell>
        <mxCell id="hGzP_NzbHsl1hQDnJrEE-14" value="" style="ellipse;whiteSpace=wrap;html=1;" vertex="1" parent="hGzP_NzbHsl1hQDnJrEE-3">
          <mxGeometry x="47" y="179" width="105" height="48" as="geometry" />
        </mxCell>
        <mxCell id="hGzP_NzbHsl1hQDnJrEE-15" value="Creer un compte" style="text;html=1;align=center;verticalAlign=middle;whiteSpace=wrap;rounded=0;" vertex="1" parent="hGzP_NzbHsl1hQDnJrEE-3">
          <mxGeometry x="69.5" y="188" width="60" height="30" as="geometry" />
        </mxCell>
        <mxCell id="hGzP_NzbHsl1hQDnJrEE-11" value="" style="ellipse;whiteSpace=wrap;html=1;" vertex="1" parent="hGzP_NzbHsl1hQDnJrEE-3">
          <mxGeometry x="59" y="119" width="101" height="47" as="geometry" />
        </mxCell>
        <mxCell id="hGzP_NzbHsl1hQDnJrEE-12" value="Rechercher des cours" style="text;html=1;align=center;verticalAlign=middle;whiteSpace=wrap;rounded=0;" vertex="1" parent="hGzP_NzbHsl1hQDnJrEE-3">
          <mxGeometry x="79.5" y="130" width="60" height="30" as="geometry" />
        </mxCell>
        <mxCell id="hGzP_NzbHsl1hQDnJrEE-23" value="" style="ellipse;whiteSpace=wrap;html=1;" vertex="1" parent="hGzP_NzbHsl1hQDnJrEE-3">
          <mxGeometry x="232" y="57" width="93" height="53" as="geometry" />
        </mxCell>
        <mxCell id="hGzP_NzbHsl1hQDnJrEE-22" value="Afficher les details des cours" style="text;html=1;align=center;verticalAlign=middle;whiteSpace=wrap;rounded=0;" vertex="1" parent="hGzP_NzbHsl1hQDnJrEE-3">
          <mxGeometry x="250.25" y="68.25" width="56.5" height="30.5" as="geometry" />
        </mxCell>
        <mxCell id="hGzP_NzbHsl1hQDnJrEE-25" value="" style="endArrow=classic;html=1;rounded=0;dashed=1;entryX=1;entryY=0.5;entryDx=0;entryDy=0;" edge="1" parent="hGzP_NzbHsl1hQDnJrEE-3" source="hGzP_NzbHsl1hQDnJrEE-23" target="hGzP_NzbHsl1hQDnJrEE-8">
          <mxGeometry width="50" height="50" relative="1" as="geometry">
            <mxPoint x="147" y="241" as="sourcePoint" />
            <mxPoint x="120" y="76" as="targetPoint" />
          </mxGeometry>
        </mxCell>
        <mxCell id="hGzP_NzbHsl1hQDnJrEE-26" value="&amp;lt;&amp;lt;extend&amp;gt;&amp;gt;" style="text;html=1;align=center;verticalAlign=middle;whiteSpace=wrap;rounded=0;" vertex="1" parent="hGzP_NzbHsl1hQDnJrEE-3">
          <mxGeometry x="151" y="53" width="60" height="30" as="geometry" />
        </mxCell>
        <mxCell id="hGzP_NzbHsl1hQDnJrEE-30" value="" style="ellipse;whiteSpace=wrap;html=1;" vertex="1" parent="hGzP_NzbHsl1hQDnJrEE-3">
          <mxGeometry x="57" y="301" width="89" height="48" as="geometry" />
        </mxCell>
        <mxCell id="hGzP_NzbHsl1hQDnJrEE-31" value="S&#39;inscriver dans un cours" style="text;html=1;align=center;verticalAlign=middle;whiteSpace=wrap;rounded=0;" vertex="1" parent="hGzP_NzbHsl1hQDnJrEE-3">
          <mxGeometry x="72.5" y="311.5" width="60" height="30" as="geometry" />
        </mxCell>
        <mxCell id="hGzP_NzbHsl1hQDnJrEE-33" value="" style="ellipse;whiteSpace=wrap;html=1;" vertex="1" parent="hGzP_NzbHsl1hQDnJrEE-3">
          <mxGeometry x="55" y="352" width="99" height="66" as="geometry" />
        </mxCell>
        <mxCell id="hGzP_NzbHsl1hQDnJrEE-34" value="Acceder a ses propres cours" style="text;html=1;align=center;verticalAlign=middle;whiteSpace=wrap;rounded=0;" vertex="1" parent="hGzP_NzbHsl1hQDnJrEE-3">
          <mxGeometry x="77" y="370" width="60" height="30" as="geometry" />
        </mxCell>
        <mxCell id="hGzP_NzbHsl1hQDnJrEE-35" value="" style="ellipse;whiteSpace=wrap;html=1;" vertex="1" parent="hGzP_NzbHsl1hQDnJrEE-3">
          <mxGeometry x="232" y="297" width="102" height="54.5" as="geometry" />
        </mxCell>
        <mxCell id="hGzP_NzbHsl1hQDnJrEE-36" value="S&#39;authentifier" style="text;html=1;align=center;verticalAlign=middle;whiteSpace=wrap;rounded=0;" vertex="1" parent="hGzP_NzbHsl1hQDnJrEE-3">
          <mxGeometry x="253" y="309.25" width="60" height="30" as="geometry" />
        </mxCell>
        <mxCell id="hGzP_NzbHsl1hQDnJrEE-38" value="" style="endArrow=classic;html=1;rounded=0;exitX=1;exitY=0.5;exitDx=0;exitDy=0;entryX=0;entryY=0.5;entryDx=0;entryDy=0;dashed=1;" edge="1" parent="hGzP_NzbHsl1hQDnJrEE-3" source="hGzP_NzbHsl1hQDnJrEE-30" target="hGzP_NzbHsl1hQDnJrEE-35">
          <mxGeometry width="50" height="50" relative="1" as="geometry">
            <mxPoint x="148" y="276" as="sourcePoint" />
            <mxPoint x="198" y="226" as="targetPoint" />
          </mxGeometry>
        </mxCell>
        <mxCell id="hGzP_NzbHsl1hQDnJrEE-39" value="&amp;lt;&amp;lt;include&amp;gt;&amp;gt;" style="text;html=1;align=center;verticalAlign=middle;whiteSpace=wrap;rounded=0;" vertex="1" parent="hGzP_NzbHsl1hQDnJrEE-3">
          <mxGeometry x="160" y="297" width="60" height="30" as="geometry" />
        </mxCell>
        <mxCell id="hGzP_NzbHsl1hQDnJrEE-40" value="" style="endArrow=classic;html=1;rounded=0;entryX=0;entryY=1;entryDx=0;entryDy=0;exitX=1;exitY=0.5;exitDx=0;exitDy=0;dashed=1;" edge="1" parent="hGzP_NzbHsl1hQDnJrEE-3" source="hGzP_NzbHsl1hQDnJrEE-33" target="hGzP_NzbHsl1hQDnJrEE-35">
          <mxGeometry width="50" height="50" relative="1" as="geometry">
            <mxPoint x="148" y="236" as="sourcePoint" />
            <mxPoint x="198" y="186" as="targetPoint" />
          </mxGeometry>
        </mxCell>
        <mxCell id="hGzP_NzbHsl1hQDnJrEE-41" value="&amp;lt;&amp;lt;include&amp;gt;&amp;gt;" style="text;html=1;align=center;verticalAlign=middle;whiteSpace=wrap;rounded=0;rotation=-15;" vertex="1" parent="hGzP_NzbHsl1hQDnJrEE-3">
          <mxGeometry x="169" y="339.25" width="60" height="30" as="geometry" />
        </mxCell>
        <mxCell id="hGzP_NzbHsl1hQDnJrEE-43" value="" style="ellipse;whiteSpace=wrap;html=1;" vertex="1" parent="hGzP_NzbHsl1hQDnJrEE-3">
          <mxGeometry x="26" y="420" width="115" height="69" as="geometry" />
        </mxCell>
        <mxCell id="hGzP_NzbHsl1hQDnJrEE-44" value="Ajouter des nouveaux cours" style="text;html=1;align=center;verticalAlign=middle;whiteSpace=wrap;rounded=0;" vertex="1" parent="hGzP_NzbHsl1hQDnJrEE-3">
          <mxGeometry x="55" y="439.5" width="60" height="30" as="geometry" />
        </mxCell>
        <mxCell id="hGzP_NzbHsl1hQDnJrEE-46" value="" style="ellipse;whiteSpace=wrap;html=1;" vertex="1" parent="hGzP_NzbHsl1hQDnJrEE-3">
          <mxGeometry x="34" y="504" width="99" height="53" as="geometry" />
        </mxCell>
        <mxCell id="hGzP_NzbHsl1hQDnJrEE-47" value="" style="ellipse;whiteSpace=wrap;html=1;" vertex="1" parent="hGzP_NzbHsl1hQDnJrEE-3">
          <mxGeometry x="30" y="566" width="111" height="65" as="geometry" />
        </mxCell>
        <mxCell id="hGzP_NzbHsl1hQDnJrEE-49" value="Modifier les cours" style="text;html=1;align=center;verticalAlign=middle;whiteSpace=wrap;rounded=0;" vertex="1" parent="hGzP_NzbHsl1hQDnJrEE-3">
          <mxGeometry x="51" y="515.5" width="60" height="30" as="geometry" />
        </mxCell>
        <mxCell id="hGzP_NzbHsl1hQDnJrEE-50" value="Supprimer les cours" style="text;html=1;align=center;verticalAlign=middle;whiteSpace=wrap;rounded=0;" vertex="1" parent="hGzP_NzbHsl1hQDnJrEE-3">
          <mxGeometry x="55" y="583.5" width="60" height="30" as="geometry" />
        </mxCell>
        <mxCell id="hGzP_NzbHsl1hQDnJrEE-52" value="" style="ellipse;whiteSpace=wrap;html=1;" vertex="1" parent="hGzP_NzbHsl1hQDnJrEE-3">
          <mxGeometry x="19" y="648" width="129" height="54" as="geometry" />
        </mxCell>
        <mxCell id="hGzP_NzbHsl1hQDnJrEE-53" value="Consulter les inscriptions" style="text;html=1;align=center;verticalAlign=middle;whiteSpace=wrap;rounded=0;" vertex="1" parent="hGzP_NzbHsl1hQDnJrEE-3">
          <mxGeometry x="51" y="660" width="60" height="30" as="geometry" />
        </mxCell>
        <mxCell id="hGzP_NzbHsl1hQDnJrEE-57" value="" style="endArrow=classic;html=1;rounded=0;entryX=0;entryY=1;entryDx=0;entryDy=0;exitX=1;exitY=0.5;exitDx=0;exitDy=0;dashed=1;" edge="1" parent="hGzP_NzbHsl1hQDnJrEE-3" source="hGzP_NzbHsl1hQDnJrEE-43" target="hGzP_NzbHsl1hQDnJrEE-35">
          <mxGeometry width="50" height="50" relative="1" as="geometry">
            <mxPoint x="150" y="581" as="sourcePoint" />
            <mxPoint x="200" y="531" as="targetPoint" />
          </mxGeometry>
        </mxCell>
        <mxCell id="hGzP_NzbHsl1hQDnJrEE-58" value="" style="endArrow=classic;html=1;rounded=0;exitX=1;exitY=0.5;exitDx=0;exitDy=0;entryX=0.337;entryY=0.96;entryDx=0;entryDy=0;entryPerimeter=0;dashed=1;" edge="1" parent="hGzP_NzbHsl1hQDnJrEE-3" source="hGzP_NzbHsl1hQDnJrEE-46" target="hGzP_NzbHsl1hQDnJrEE-35">
          <mxGeometry width="50" height="50" relative="1" as="geometry">
            <mxPoint x="150" y="581" as="sourcePoint" />
            <mxPoint x="200" y="531" as="targetPoint" />
          </mxGeometry>
        </mxCell>
        <mxCell id="hGzP_NzbHsl1hQDnJrEE-59" value="" style="endArrow=classic;html=1;rounded=0;exitX=1;exitY=0.5;exitDx=0;exitDy=0;entryX=0.5;entryY=1;entryDx=0;entryDy=0;dashed=1;" edge="1" parent="hGzP_NzbHsl1hQDnJrEE-3" source="hGzP_NzbHsl1hQDnJrEE-47" target="hGzP_NzbHsl1hQDnJrEE-35">
          <mxGeometry width="50" height="50" relative="1" as="geometry">
            <mxPoint x="150" y="581" as="sourcePoint" />
            <mxPoint x="200" y="531" as="targetPoint" />
          </mxGeometry>
        </mxCell>
        <mxCell id="hGzP_NzbHsl1hQDnJrEE-60" value="" style="endArrow=classic;html=1;rounded=0;exitX=1;exitY=0.5;exitDx=0;exitDy=0;entryX=0.657;entryY=0.96;entryDx=0;entryDy=0;entryPerimeter=0;dashed=1;" edge="1" parent="hGzP_NzbHsl1hQDnJrEE-3" source="hGzP_NzbHsl1hQDnJrEE-52" target="hGzP_NzbHsl1hQDnJrEE-35">
          <mxGeometry width="50" height="50" relative="1" as="geometry">
            <mxPoint x="150" y="581" as="sourcePoint" />
            <mxPoint x="200" y="531" as="targetPoint" />
          </mxGeometry>
        </mxCell>
        <mxCell id="hGzP_NzbHsl1hQDnJrEE-55" value="" style="ellipse;whiteSpace=wrap;html=1;" vertex="1" parent="hGzP_NzbHsl1hQDnJrEE-3">
          <mxGeometry x="30" y="721" width="96" height="56" as="geometry" />
        </mxCell>
        <mxCell id="hGzP_NzbHsl1hQDnJrEE-61" value="" style="endArrow=classic;html=1;rounded=0;exitX=1;exitY=0.5;exitDx=0;exitDy=0;entryX=0.742;entryY=0.899;entryDx=0;entryDy=0;entryPerimeter=0;dashed=1;" edge="1" parent="hGzP_NzbHsl1hQDnJrEE-3" source="hGzP_NzbHsl1hQDnJrEE-55" target="hGzP_NzbHsl1hQDnJrEE-35">
          <mxGeometry width="50" height="50" relative="1" as="geometry">
            <mxPoint x="150" y="581" as="sourcePoint" />
            <mxPoint x="200" y="531" as="targetPoint" />
          </mxGeometry>
        </mxCell>
        <mxCell id="hGzP_NzbHsl1hQDnJrEE-56" value="Acces aux statistiques" style="text;html=1;align=center;verticalAlign=middle;whiteSpace=wrap;rounded=0;" vertex="1" parent="hGzP_NzbHsl1hQDnJrEE-3">
          <mxGeometry x="51" y="734" width="60" height="30" as="geometry" />
        </mxCell>
        <mxCell id="hGzP_NzbHsl1hQDnJrEE-4" value="Visiteur" style="shape=umlActor;verticalLabelPosition=bottom;verticalAlign=top;html=1;outlineConnect=0;" vertex="1" parent="1">
          <mxGeometry x="170" y="60" width="30" height="60" as="geometry" />
        </mxCell>
        <mxCell id="hGzP_NzbHsl1hQDnJrEE-5" value="Etudiant" style="shape=umlActor;verticalLabelPosition=bottom;verticalAlign=top;html=1;outlineConnect=0;" vertex="1" parent="1">
          <mxGeometry x="180" y="264" width="30" height="60" as="geometry" />
        </mxCell>
        <mxCell id="hGzP_NzbHsl1hQDnJrEE-6" value="Enseignant" style="shape=umlActor;verticalLabelPosition=bottom;verticalAlign=top;html=1;outlineConnect=0;" vertex="1" parent="1">
          <mxGeometry x="173" y="494" width="30" height="60" as="geometry" />
        </mxCell>
        <mxCell id="hGzP_NzbHsl1hQDnJrEE-7" value="" style="endArrow=none;html=1;rounded=0;" edge="1" parent="1" target="hGzP_NzbHsl1hQDnJrEE-8">
          <mxGeometry width="50" height="50" relative="1" as="geometry">
            <mxPoint x="199" y="93" as="sourcePoint" />
            <mxPoint x="433" y="209" as="targetPoint" />
          </mxGeometry>
        </mxCell>
        <mxCell id="hGzP_NzbHsl1hQDnJrEE-10" value="" style="endArrow=none;html=1;rounded=0;" edge="1" parent="1" target="hGzP_NzbHsl1hQDnJrEE-11">
          <mxGeometry width="50" height="50" relative="1" as="geometry">
            <mxPoint x="199" y="93" as="sourcePoint" />
            <mxPoint x="323" y="157" as="targetPoint" />
            <Array as="points" />
          </mxGeometry>
        </mxCell>
        <mxCell id="hGzP_NzbHsl1hQDnJrEE-13" value="" style="endArrow=none;html=1;rounded=0;" edge="1" parent="1" target="hGzP_NzbHsl1hQDnJrEE-14">
          <mxGeometry width="50" height="50" relative="1" as="geometry">
            <mxPoint x="199" y="94" as="sourcePoint" />
            <mxPoint x="433" y="209" as="targetPoint" />
          </mxGeometry>
        </mxCell>
        <mxCell id="hGzP_NzbHsl1hQDnJrEE-20" value="" style="endArrow=none;html=1;rounded=0;entryX=0;entryY=1;entryDx=0;entryDy=0;" edge="1" parent="1" target="hGzP_NzbHsl1hQDnJrEE-8">
          <mxGeometry width="50" height="50" relative="1" as="geometry">
            <mxPoint x="212" y="297" as="sourcePoint" />
            <mxPoint x="294.5204242214363" y="296.64792282492306" as="targetPoint" />
          </mxGeometry>
        </mxCell>
        <mxCell id="hGzP_NzbHsl1hQDnJrEE-29" value="" style="endArrow=none;html=1;rounded=0;" edge="1" parent="1" target="hGzP_NzbHsl1hQDnJrEE-30">
          <mxGeometry width="50" height="50" relative="1" as="geometry">
            <mxPoint x="211" y="295" as="sourcePoint" />
            <mxPoint x="433" y="222" as="targetPoint" />
          </mxGeometry>
        </mxCell>
        <mxCell id="hGzP_NzbHsl1hQDnJrEE-32" value="" style="endArrow=none;html=1;rounded=0;" edge="1" parent="1" target="hGzP_NzbHsl1hQDnJrEE-33">
          <mxGeometry width="50" height="50" relative="1" as="geometry">
            <mxPoint x="211" y="295" as="sourcePoint" />
            <mxPoint x="433" y="222" as="targetPoint" />
          </mxGeometry>
        </mxCell>
        <mxCell id="hGzP_NzbHsl1hQDnJrEE-42" value="" style="endArrow=none;html=1;rounded=0;" edge="1" parent="1" source="hGzP_NzbHsl1hQDnJrEE-6" target="hGzP_NzbHsl1hQDnJrEE-43">
          <mxGeometry width="50" height="50" relative="1" as="geometry">
            <mxPoint x="383" y="608" as="sourcePoint" />
            <mxPoint x="433" y="558" as="targetPoint" />
          </mxGeometry>
        </mxCell>
        <mxCell id="hGzP_NzbHsl1hQDnJrEE-45" value="" style="endArrow=none;html=1;rounded=0;" edge="1" parent="1" target="hGzP_NzbHsl1hQDnJrEE-46">
          <mxGeometry width="50" height="50" relative="1" as="geometry">
            <mxPoint x="203" y="520" as="sourcePoint" />
            <mxPoint x="433" y="507" as="targetPoint" />
          </mxGeometry>
        </mxCell>
        <mxCell id="hGzP_NzbHsl1hQDnJrEE-48" value="" style="endArrow=none;html=1;rounded=0;entryX=0;entryY=0.5;entryDx=0;entryDy=0;" edge="1" parent="1" target="hGzP_NzbHsl1hQDnJrEE-47">
          <mxGeometry width="50" height="50" relative="1" as="geometry">
            <mxPoint x="203" y="521" as="sourcePoint" />
            <mxPoint x="433" y="507" as="targetPoint" />
          </mxGeometry>
        </mxCell>
        <mxCell id="hGzP_NzbHsl1hQDnJrEE-51" value="" style="endArrow=none;html=1;rounded=0;entryX=0;entryY=0.5;entryDx=0;entryDy=0;" edge="1" parent="1" target="hGzP_NzbHsl1hQDnJrEE-52">
          <mxGeometry width="50" height="50" relative="1" as="geometry">
            <mxPoint x="203" y="521" as="sourcePoint" />
            <mxPoint x="433" y="636" as="targetPoint" />
          </mxGeometry>
        </mxCell>
        <mxCell id="hGzP_NzbHsl1hQDnJrEE-54" value="" style="endArrow=none;html=1;rounded=0;entryX=0;entryY=0.5;entryDx=0;entryDy=0;" edge="1" parent="1" target="hGzP_NzbHsl1hQDnJrEE-55">
          <mxGeometry width="50" height="50" relative="1" as="geometry">
            <mxPoint x="203" y="516" as="sourcePoint" />
            <mxPoint x="433" y="519" as="targetPoint" />
          </mxGeometry>
        </mxCell>
        <mxCell id="hGzP_NzbHsl1hQDnJrEE-62" value="Admin" style="shape=umlActor;verticalLabelPosition=bottom;verticalAlign=top;html=1;outlineConnect=0;" vertex="1" parent="1">
          <mxGeometry x="170" y="872" width="30" height="60" as="geometry" />
        </mxCell>
      </root>
    </mxGraphModel>
  </diagram>
</mxfile>
